<mxfile host="app.diagrams.net" modified="2024-05-21T07:37:01.020Z" agent="Mozilla/5.0 (Windows NT 10.0; Win64; x64) AppleWebKit/537.36 (KHTML, like Gecko) Chrome/124.0.0.0 Safari/537.36" etag="Va2XK3Wf8QxahAE6EaA4" version="24.4.4" type="device">
  <diagram name="Page-1" id="2YBvvXClWsGukQMizWep">
    <mxGraphModel dx="270" dy="449" grid="1" gridSize="10" guides="1" tooltips="1" connect="1" arrows="1" fold="1" page="1" pageScale="1" pageWidth="850" pageHeight="1100" math="0" shadow="0">
      <root>
        <mxCell id="0" />
        <mxCell id="1" parent="0" />
        <mxCell id="aM9ryv3xv72pqoxQDRHE-1" value=":StartPanel" style="shape=umlLifeline;perimeter=lifelinePerimeter;whiteSpace=wrap;html=1;container=0;dropTarget=0;collapsible=0;recursiveResize=0;outlineConnect=0;portConstraint=eastwest;newEdgeStyle={&quot;edgeStyle&quot;:&quot;elbowEdgeStyle&quot;,&quot;elbow&quot;:&quot;vertical&quot;,&quot;curved&quot;:0,&quot;rounded&quot;:0};" parent="1" vertex="1">
          <mxGeometry x="40" y="40" width="100" height="300" as="geometry" />
        </mxCell>
        <mxCell id="aM9ryv3xv72pqoxQDRHE-2" value="" style="html=1;points=[];perimeter=orthogonalPerimeter;outlineConnect=0;targetShapes=umlLifeline;portConstraint=eastwest;newEdgeStyle={&quot;edgeStyle&quot;:&quot;elbowEdgeStyle&quot;,&quot;elbow&quot;:&quot;vertical&quot;,&quot;curved&quot;:0,&quot;rounded&quot;:0};" parent="aM9ryv3xv72pqoxQDRHE-1" vertex="1">
          <mxGeometry x="45" y="70" width="10" height="190" as="geometry" />
        </mxCell>
        <mxCell id="aM9ryv3xv72pqoxQDRHE-3" value="dispatch" style="html=1;verticalAlign=bottom;startArrow=oval;endArrow=block;startSize=8;edgeStyle=elbowEdgeStyle;elbow=vertical;curved=0;rounded=0;" parent="aM9ryv3xv72pqoxQDRHE-1" target="aM9ryv3xv72pqoxQDRHE-2" edge="1">
          <mxGeometry relative="1" as="geometry">
            <mxPoint x="-15" y="70" as="sourcePoint" />
          </mxGeometry>
        </mxCell>
        <mxCell id="aM9ryv3xv72pqoxQDRHE-5" value=":RecordPanel" style="shape=umlLifeline;perimeter=lifelinePerimeter;whiteSpace=wrap;html=1;container=0;dropTarget=0;collapsible=0;recursiveResize=0;outlineConnect=0;portConstraint=eastwest;newEdgeStyle={&quot;edgeStyle&quot;:&quot;elbowEdgeStyle&quot;,&quot;elbow&quot;:&quot;vertical&quot;,&quot;curved&quot;:0,&quot;rounded&quot;:0};" parent="1" vertex="1">
          <mxGeometry x="310" y="40" width="100" height="300" as="geometry" />
        </mxCell>
        <mxCell id="aM9ryv3xv72pqoxQDRHE-6" value="" style="html=1;points=[];perimeter=orthogonalPerimeter;outlineConnect=0;targetShapes=umlLifeline;portConstraint=eastwest;newEdgeStyle={&quot;edgeStyle&quot;:&quot;elbowEdgeStyle&quot;,&quot;elbow&quot;:&quot;vertical&quot;,&quot;curved&quot;:0,&quot;rounded&quot;:0};" parent="aM9ryv3xv72pqoxQDRHE-5" vertex="1">
          <mxGeometry x="45" y="160" width="10" height="90" as="geometry" />
        </mxCell>
        <mxCell id="n30VGAKBqQjV8MNpbwLg-2" value="frame" style="shape=umlFrame;whiteSpace=wrap;html=1;pointerEvents=0;" vertex="1" parent="1">
          <mxGeometry x="80" y="360" width="210" height="120" as="geometry" />
        </mxCell>
        <mxCell id="n30VGAKBqQjV8MNpbwLg-9" value="" style="endArrow=classic;html=1;rounded=0;" edge="1" parent="1">
          <mxGeometry width="50" height="50" relative="1" as="geometry">
            <mxPoint x="95" y="120" as="sourcePoint" />
            <mxPoint x="215" y="120" as="targetPoint" />
          </mxGeometry>
        </mxCell>
        <mxCell id="n30VGAKBqQjV8MNpbwLg-14" value="&lt;span style=&quot;font-size: 12px; text-wrap: wrap; background-color: rgb(251, 251, 251);&quot;&gt;connect = new Connect()&lt;/span&gt;" style="edgeLabel;html=1;align=center;verticalAlign=middle;resizable=0;points=[];" vertex="1" connectable="0" parent="n30VGAKBqQjV8MNpbwLg-9">
          <mxGeometry x="0.4119" y="1" relative="1" as="geometry">
            <mxPoint x="-20" y="-9" as="offset" />
          </mxGeometry>
        </mxCell>
        <mxCell id="n30VGAKBqQjV8MNpbwLg-10" value=":Connect" style="shape=umlLifeline;perimeter=lifelinePerimeter;whiteSpace=wrap;html=1;container=0;dropTarget=0;collapsible=0;recursiveResize=0;outlineConnect=0;portConstraint=eastwest;newEdgeStyle={&quot;edgeStyle&quot;:&quot;elbowEdgeStyle&quot;,&quot;elbow&quot;:&quot;vertical&quot;,&quot;curved&quot;:0,&quot;rounded&quot;:0};" vertex="1" parent="1">
          <mxGeometry x="170" y="40" width="100" height="300" as="geometry" />
        </mxCell>
        <mxCell id="n30VGAKBqQjV8MNpbwLg-11" value="" style="html=1;points=[];perimeter=orthogonalPerimeter;outlineConnect=0;targetShapes=umlLifeline;portConstraint=eastwest;newEdgeStyle={&quot;edgeStyle&quot;:&quot;elbowEdgeStyle&quot;,&quot;elbow&quot;:&quot;vertical&quot;,&quot;curved&quot;:0,&quot;rounded&quot;:0};" vertex="1" parent="n30VGAKBqQjV8MNpbwLg-10">
          <mxGeometry x="45" y="80" width="10" height="170" as="geometry" />
        </mxCell>
        <mxCell id="n30VGAKBqQjV8MNpbwLg-12" value="" style="endArrow=classic;html=1;rounded=0;" edge="1" parent="1" target="n30VGAKBqQjV8MNpbwLg-11">
          <mxGeometry width="50" height="50" relative="1" as="geometry">
            <mxPoint x="95" y="140" as="sourcePoint" />
            <mxPoint x="220" y="140" as="targetPoint" />
          </mxGeometry>
        </mxCell>
        <mxCell id="n30VGAKBqQjV8MNpbwLg-13" value="connectAdopter()" style="edgeLabel;html=1;align=center;verticalAlign=middle;resizable=0;points=[];" vertex="1" connectable="0" parent="n30VGAKBqQjV8MNpbwLg-12">
          <mxGeometry x="0.2976" y="2" relative="1" as="geometry">
            <mxPoint x="-13" as="offset" />
          </mxGeometry>
        </mxCell>
        <mxCell id="n30VGAKBqQjV8MNpbwLg-15" value="" style="endArrow=classic;html=1;rounded=0;" edge="1" parent="1" source="aM9ryv3xv72pqoxQDRHE-2" target="n30VGAKBqQjV8MNpbwLg-11">
          <mxGeometry width="50" height="50" relative="1" as="geometry">
            <mxPoint x="170" y="230" as="sourcePoint" />
            <mxPoint x="220" y="180" as="targetPoint" />
            <Array as="points">
              <mxPoint x="160" y="160" />
            </Array>
          </mxGeometry>
        </mxCell>
        <mxCell id="n30VGAKBqQjV8MNpbwLg-16" value="connectOBD()" style="edgeLabel;html=1;align=center;verticalAlign=middle;resizable=0;points=[];" vertex="1" connectable="0" parent="n30VGAKBqQjV8MNpbwLg-15">
          <mxGeometry x="0.3929" y="-1" relative="1" as="geometry">
            <mxPoint x="-18" as="offset" />
          </mxGeometry>
        </mxCell>
        <mxCell id="n30VGAKBqQjV8MNpbwLg-17" value="" style="endArrow=classic;html=1;rounded=0;" edge="1" parent="1" source="aM9ryv3xv72pqoxQDRHE-2" target="aM9ryv3xv72pqoxQDRHE-6">
          <mxGeometry width="50" height="50" relative="1" as="geometry">
            <mxPoint x="90" y="180" as="sourcePoint" />
            <mxPoint x="350" y="180" as="targetPoint" />
          </mxGeometry>
        </mxCell>
        <mxCell id="n30VGAKBqQjV8MNpbwLg-19" value="intent = new Intent()" style="edgeLabel;html=1;align=center;verticalAlign=middle;resizable=0;points=[];" vertex="1" connectable="0" parent="n30VGAKBqQjV8MNpbwLg-17">
          <mxGeometry x="-0.344" relative="1" as="geometry">
            <mxPoint as="offset" />
          </mxGeometry>
        </mxCell>
        <mxCell id="n30VGAKBqQjV8MNpbwLg-20" value="" style="endArrow=classic;html=1;rounded=0;" edge="1" parent="1" target="aM9ryv3xv72pqoxQDRHE-6">
          <mxGeometry width="50" height="50" relative="1" as="geometry">
            <mxPoint x="95" y="230" as="sourcePoint" />
            <mxPoint x="170" y="230" as="targetPoint" />
          </mxGeometry>
        </mxCell>
        <mxCell id="n30VGAKBqQjV8MNpbwLg-21" value="intent.putExtra(connect)" style="edgeLabel;html=1;align=center;verticalAlign=middle;resizable=0;points=[];" vertex="1" connectable="0" parent="n30VGAKBqQjV8MNpbwLg-20">
          <mxGeometry x="-0.3747" y="-2" relative="1" as="geometry">
            <mxPoint as="offset" />
          </mxGeometry>
        </mxCell>
        <mxCell id="n30VGAKBqQjV8MNpbwLg-22" value="" style="endArrow=classic;html=1;rounded=0;" edge="1" parent="1" target="aM9ryv3xv72pqoxQDRHE-6">
          <mxGeometry width="50" height="50" relative="1" as="geometry">
            <mxPoint x="95" y="260" as="sourcePoint" />
            <mxPoint x="220" y="260" as="targetPoint" />
          </mxGeometry>
        </mxCell>
        <mxCell id="n30VGAKBqQjV8MNpbwLg-23" value="Text" style="edgeLabel;html=1;align=center;verticalAlign=middle;resizable=0;points=[];" vertex="1" connectable="0" parent="n30VGAKBqQjV8MNpbwLg-22">
          <mxGeometry x="-0.3923" y="-2" relative="1" as="geometry">
            <mxPoint as="offset" />
          </mxGeometry>
        </mxCell>
      </root>
    </mxGraphModel>
  </diagram>
</mxfile>
